<svg width="686" height="335" viewBox="0 0 686 335" fill="none" xmlns="http://www.w3.org/2000/svg">
<g clip-path="url(#clip0_293_13)">
<path d="M54.2929 121.85C54.2929 125.65 54.6729 128.563 55.4329 130.59C56.3196 132.49 58.0929 133.82 60.7529 134.58C63.4129 135.34 67.3396 135.72 72.5329 135.72C72.9129 135.72 73.1029 136.1 73.1029 136.86C73.1029 137.62 72.9129 138 72.5329 138C68.4796 138 64.0463 137.937 59.2329 137.81C54.5463 137.683 49.4163 137.62 43.8429 137.62C39.2829 137.62 34.9129 137.683 30.7329 137.81C26.6796 137.937 23.0063 138 19.7129 138C19.3329 138 19.1429 137.62 19.1429 136.86C19.1429 136.1 19.3329 135.72 19.7129 135.72C23.6396 135.72 26.5529 135.403 28.4529 134.77C30.3529 134.137 31.6196 132.87 32.2529 130.97C32.8863 129.07 33.2029 126.283 33.2029 122.61V34.64C33.2029 30.9667 32.8863 28.2433 32.2529 26.47C31.6196 24.57 30.3529 23.3033 28.4529 22.67C26.5529 21.91 23.6396 21.53 19.7129 21.53C19.3329 21.53 19.1429 21.15 19.1429 20.39C19.1429 19.63 19.3329 19.25 19.7129 19.25C23.0063 19.25 26.6796 19.3767 30.7329 19.63C34.7863 19.7567 39.0929 19.82 43.6529 19.82C46.6929 19.82 50.6829 19.63 55.6229 19.25C60.5629 18.87 65.1863 18.68 69.4929 18.68C77.4729 18.68 84.5029 19.7567 90.5829 21.91C96.7896 23.9367 101.729 27.23 105.403 31.79C109.076 36.35 111.039 42.3667 111.293 49.84C111.546 56.3 110.469 61.9367 108.063 66.75C105.783 71.5633 102.553 75.5533 98.3729 78.72C94.3196 81.8867 89.7596 84.2933 84.6929 85.94C79.7529 87.46 74.8129 88.22 69.8729 88.22C68.6063 88.22 67.1496 88.1567 65.5029 88.03C63.9829 87.9033 62.4629 87.65 60.9429 87.27C60.5629 87.1433 60.4363 86.7 60.5629 85.94C60.6896 85.0533 61.0063 84.6733 61.5129 84.8C62.5263 85.0533 63.6663 85.2433 64.9329 85.37C66.1996 85.4967 67.2129 85.56 67.9729 85.56C71.6463 85.56 75.0029 84.42 78.0429 82.14C81.0829 79.86 83.5529 76.3767 85.4529 71.69C87.3529 67.0033 88.3029 61.1767 88.3029 54.21C88.3029 47.4967 87.3529 41.86 85.4529 37.3C83.5529 32.6133 80.7663 29.0667 77.0929 26.66C73.4196 24.1267 68.8596 22.86 63.4129 22.86C61.1329 22.86 59.2963 23.1767 57.9029 23.81C56.6363 24.4433 55.6863 25.6467 55.0529 27.42C54.5463 29.1933 54.2929 31.7267 54.2929 35.02V121.85ZM122.262 138C122.009 138 121.882 137.62 121.882 136.86C121.882 136.1 122.009 135.72 122.262 135.72C126.189 135.72 128.849 134.833 130.242 133.06C131.762 131.16 132.522 127.677 132.522 122.61V26.09C132.522 21.7833 132.142 18.68 131.382 16.78C130.622 14.7533 129.166 13.74 127.012 13.74C125.239 13.74 122.832 14.4367 119.792 15.83C119.412 15.9567 119.032 15.64 118.652 14.88C118.272 14.12 118.209 13.6767 118.462 13.55L146.202 0.439998C146.456 0.313333 146.646 0.25 146.772 0.25C146.899 0.25 147.026 0.25 147.152 0.25C147.786 0.25 148.419 0.566667 149.052 1.2C149.812 1.70667 150.192 2.21334 150.192 2.72001V122.61C150.192 127.677 150.889 131.16 152.282 133.06C153.802 134.833 156.526 135.72 160.452 135.72C160.959 135.72 161.212 136.1 161.212 136.86C161.212 137.62 160.959 138 160.452 138C157.919 138 155.006 137.937 151.712 137.81C148.546 137.683 145.126 137.62 141.452 137.62C137.779 137.62 134.296 137.683 131.002 137.81C127.709 137.937 124.796 138 122.262 138ZM173.372 138C173.119 138 172.992 137.62 172.992 136.86C172.992 136.1 173.119 135.72 173.372 135.72C177.299 135.72 179.959 134.833 181.352 133.06C182.872 131.16 183.632 127.677 183.632 122.61V95.25C183.632 81.8233 178.439 75.11 168.052 75.11C164.252 75.11 160.326 76.06 156.272 77.96C152.346 79.86 149.242 82.4567 146.962 85.75L145.822 83.47C150.256 77.1367 155.259 72.07 160.832 68.27C166.406 64.3433 172.486 62.38 179.072 62.38C186.166 62.38 191.612 64.5967 195.412 69.03C199.339 73.4633 201.302 79.1633 201.302 86.13V122.61C201.302 127.677 201.999 131.16 203.392 133.06C204.912 134.833 207.636 135.72 211.562 135.72C212.069 135.72 212.322 136.1 212.322 136.86C212.322 137.62 212.069 138 211.562 138C209.029 138 206.116 137.937 202.822 137.81C199.656 137.683 196.236 137.62 192.562 137.62C188.889 137.62 185.406 137.683 182.112 137.81C178.819 137.937 175.906 138 173.372 138ZM222.352 138C221.972 138 221.782 137.62 221.782 136.86C221.782 136.1 221.972 135.72 222.352 135.72C226.279 135.72 228.939 134.833 230.332 133.06C231.726 131.16 232.422 127.677 232.422 122.61V88.6C232.422 84.42 231.979 81.38 231.092 79.48C230.332 77.4533 228.876 76.44 226.722 76.44C225.836 76.44 224.759 76.63 223.492 77.01C222.352 77.39 221.086 77.8967 219.692 78.53C219.186 78.6567 218.742 78.34 218.362 77.58C218.109 76.82 218.172 76.3767 218.552 76.25L247.242 62.95C247.496 62.8233 247.686 62.76 247.812 62.76C248.446 62.76 249.079 63.0767 249.712 63.71C250.346 64.3433 250.662 64.9133 250.662 65.42C250.662 66.94 250.599 69.4733 250.472 73.02C250.346 76.5667 250.282 81.6333 250.282 88.22V122.61C250.282 127.677 250.979 131.16 252.372 133.06C253.892 134.833 256.616 135.72 260.542 135.72C260.922 135.72 261.112 136.1 261.112 136.86C261.112 137.62 260.922 138 260.542 138C258.009 138 255.096 137.937 251.802 137.81C248.509 137.683 245.026 137.62 241.352 137.62C237.806 137.62 234.386 137.683 231.092 137.81C227.799 137.937 224.886 138 222.352 138ZM240.592 43.95C237.046 43.95 234.196 42.9367 232.042 40.91C230.016 38.8833 229.002 36.0333 229.002 32.36C229.002 29.0667 230.016 26.47 232.042 24.57C234.196 22.5433 237.046 21.53 240.592 21.53C244.139 21.53 246.862 22.5433 248.762 24.57C250.662 26.47 251.612 29.0667 251.612 32.36C251.612 40.0867 247.939 43.95 240.592 43.95ZM271.504 138C271.251 138 271.124 137.62 271.124 136.86C271.124 136.1 271.251 135.72 271.504 135.72C275.431 135.72 278.091 134.833 279.484 133.06C281.004 131.16 281.764 127.677 281.764 122.61L281.954 26.09C281.954 21.7833 281.574 18.68 280.814 16.78C280.054 14.7533 278.598 13.74 276.444 13.74C274.798 13.74 272.391 14.4367 269.224 15.83C268.844 15.9567 268.464 15.64 268.084 14.88C267.704 14.12 267.641 13.6767 267.894 13.55L295.824 0.439998C296.078 0.313333 296.331 0.25 296.584 0.25C297.218 0.25 297.914 0.566667 298.674 1.2C299.434 1.70667 299.814 2.21334 299.814 2.72001V122.61C299.814 127.677 300.511 131.16 301.904 133.06C303.298 134.833 305.958 135.72 309.884 135.72C310.391 135.72 310.644 136.1 310.644 136.86C310.644 137.62 310.391 138 309.884 138C307.478 138 304.564 137.937 301.144 137.81C297.851 137.683 294.368 137.62 290.694 137.62C287.021 137.62 283.538 137.683 280.244 137.81C276.951 137.937 274.038 138 271.504 138ZM323.104 138C322.724 138 322.534 137.62 322.534 136.86C322.534 136.1 322.724 135.72 323.104 135.72C327.031 135.72 329.691 134.833 331.084 133.06C332.478 131.16 333.174 127.677 333.174 122.61V88.6C333.174 84.42 332.731 81.38 331.844 79.48C331.084 77.4533 329.628 76.44 327.474 76.44C326.588 76.44 325.511 76.63 324.244 77.01C323.104 77.39 321.838 77.8967 320.444 78.53C319.938 78.6567 319.494 78.34 319.114 77.58C318.861 76.82 318.924 76.3767 319.304 76.25L347.994 62.95C348.248 62.8233 348.438 62.76 348.564 62.76C349.198 62.76 349.831 63.0767 350.464 63.71C351.098 64.3433 351.414 64.9133 351.414 65.42C351.414 66.94 351.351 69.4733 351.224 73.02C351.098 76.5667 351.034 81.6333 351.034 88.22V122.61C351.034 127.677 351.731 131.16 353.124 133.06C354.644 134.833 357.368 135.72 361.294 135.72C361.674 135.72 361.864 136.1 361.864 136.86C361.864 137.62 361.674 138 361.294 138C358.761 138 355.848 137.937 352.554 137.81C349.261 137.683 345.778 137.62 342.104 137.62C338.558 137.62 335.138 137.683 331.844 137.81C328.551 137.937 325.638 138 323.104 138ZM341.344 43.95C337.798 43.95 334.948 42.9367 332.794 40.91C330.768 38.8833 329.754 36.0333 329.754 32.36C329.754 29.0667 330.768 26.47 332.794 24.57C334.948 22.5433 337.798 21.53 341.344 21.53C344.891 21.53 347.614 22.5433 349.514 24.57C351.414 26.47 352.364 29.0667 352.364 32.36C352.364 40.0867 348.691 43.95 341.344 43.95ZM370.546 190.25C370.166 190.25 369.976 189.87 369.976 189.11C369.976 188.35 370.166 187.97 370.546 187.97C374.98 187.97 377.83 187.147 379.096 185.5C380.49 183.853 381.186 180.307 381.186 174.86V86.89C381.186 82.9633 380.743 80.1133 379.856 78.34C378.97 76.44 377.386 75.49 375.106 75.49C374.093 75.49 372.826 75.7433 371.306 76.25C369.786 76.63 368.14 77.2633 366.366 78.15C365.86 78.4033 365.416 78.15 365.036 77.39C364.656 76.63 364.593 76.1867 364.846 76.06L391.826 62.95C392.08 62.8233 392.396 62.76 392.776 62.76C394.17 62.76 395.5 64.28 396.766 67.32C398.16 70.36 398.856 74.73 398.856 80.43V174.86C398.856 178.407 399.236 181.13 399.996 183.03C400.883 184.93 402.53 186.197 404.936 186.83C407.343 187.59 410.953 187.97 415.766 187.97C416.146 187.97 416.336 188.35 416.336 189.11C416.336 189.87 416.146 190.25 415.766 190.25C412.22 190.25 408.23 190.187 403.796 190.06C399.363 189.933 394.676 189.87 389.736 189.87C386.19 189.87 382.706 189.933 379.286 190.06C375.993 190.187 373.08 190.25 370.546 190.25ZM415.196 140.47C410.256 140.47 406.013 140.09 402.466 139.33C399.046 138.57 394.93 137.367 390.116 135.72L396.766 123.75C399.553 127.17 402.53 130.02 405.696 132.3C408.99 134.58 413.36 135.72 418.806 135.72C424.76 135.72 429.446 133.123 432.866 127.93C436.286 122.737 437.996 114.44 437.996 103.04C437.996 92.9067 435.653 85.37 430.966 80.43C426.28 75.3633 420.77 72.83 414.436 72.83C409.75 72.83 405.696 74.0333 402.276 76.44C398.856 78.8467 395.5 81.8867 392.206 85.56L390.306 83.28C396.766 75.8067 402.91 70.4233 408.736 67.13C414.69 63.8367 420.77 62.19 426.976 62.19C432.296 62.19 437.236 63.5833 441.796 66.37C446.356 69.03 450.03 72.9567 452.816 78.15C455.73 83.3433 457.186 89.6767 457.186 97.15C457.186 105.257 455.856 112.097 453.196 117.67C450.663 123.243 447.306 127.74 443.126 131.16C438.946 134.453 434.386 136.797 429.446 138.19C424.633 139.71 419.883 140.47 415.196 140.47ZM648.53 62.19C652.963 62.19 655.18 64.66 655.18 69.6C655.18 73.1467 654.04 76.82 651.76 80.62C649.606 84.2933 646.756 87.3333 643.21 89.74C639.663 92.1467 635.926 93.35 632 93.35C628.833 93.35 624.526 92.21 619.08 89.93C616.42 106.017 610.466 118.43 601.22 127.17C591.973 135.91 580.763 140.28 567.59 140.28C558.343 140.28 550.11 138.253 542.89 134.2C535.796 130.02 530.286 124.51 526.36 117.67C522.433 110.703 520.47 103.23 520.47 95.25C520.47 91.9567 520.85 88.6 521.61 85.18C523.003 78.34 525.79 72.26 529.97 66.94C534.276 61.4933 539.47 57.25 545.55 54.21C551.756 51.17 558.343 49.65 565.31 49.65C571.516 49.65 576.836 50.7267 581.27 52.88C587.476 45.66 590.58 39.58 590.58 34.64C590.58 32.2333 590.136 30.46 589.25 29.32C588.363 28.0533 586.97 26.85 585.07 25.71C583.17 24.57 581.776 23.43 580.89 22.29C580.003 21.15 579.56 19.3767 579.56 16.97C579.56 14.0567 580.383 11.7133 582.03 9.94C583.803 8.16666 586.146 7.28001 589.06 7.28001C592.733 7.28001 595.52 8.73666 597.42 11.65C599.32 14.5633 600.27 18.3633 600.27 23.05C600.27 30.9033 597.863 38.5033 593.05 45.85C588.363 53.1967 582.536 59.9733 575.57 66.18C568.603 72.26 559.103 79.9867 547.07 89.36L539.09 95.63C540.483 106.017 544.473 114.25 551.06 120.33C557.773 126.283 565.626 129.26 574.62 129.26C581.08 129.26 587.16 127.613 592.86 124.32C598.56 121.027 603.373 116.277 607.3 110.07C611.226 103.737 613.823 96.39 615.09 88.03C614.583 87.7767 612.936 86.89 610.15 85.37C604.703 82.5833 600.523 80.62 597.61 79.48C594.696 78.2133 591.846 77.58 589.06 77.58C586.906 77.58 585.323 77.96 584.31 78.72C583.296 79.3533 582.79 80.3033 582.79 81.57C582.79 83.09 583.613 84.8 585.26 86.7C586.906 88.8533 587.73 90.6267 587.73 92.02C587.73 93.54 587.16 94.9333 586.02 96.2C585.006 97.34 583.423 97.91 581.27 97.91C579.37 97.91 577.723 97.34 576.33 96.2C575.063 94.9333 574.43 93.0333 574.43 90.5C574.43 86.8267 575.696 83.1533 578.23 79.48C580.89 75.8067 584.246 72.83 588.3 70.55C592.353 68.1433 596.47 66.94 600.65 66.94C603.943 66.94 607.3 67.6367 610.72 69.03C614.14 70.2967 618.51 72.26 623.83 74.92C628.136 77.0733 631.683 78.72 634.47 79.86C637.256 81 639.79 81.57 642.07 81.57C643.716 81.57 645.046 81.2533 646.06 80.62C647.2 79.9867 647.77 79.1 647.77 77.96C647.77 77.0733 646.946 75.8067 645.3 74.16C644.033 72.8933 643.083 71.88 642.45 71.12C641.943 70.2333 641.69 69.0933 641.69 67.7C641.69 66.0533 642.26 64.7233 643.4 63.71C644.666 62.6967 646.376 62.19 648.53 62.19ZM539.28 79.1C538.646 83.28 538.456 87.2067 538.71 90.88C540.99 88.98 542.193 87.9667 542.32 87.84C553.466 79.1 561.763 72.1967 567.21 67.13C564.803 59.2767 560.75 55.35 555.05 55.35C550.87 55.35 547.45 57.5667 544.79 62C542.13 66.4333 540.293 72.1333 539.28 79.1ZM19.2231 181.44C19.2231 186.253 20.4264 190.497 22.8331 194.17C25.3664 197.717 28.5964 200.947 32.5231 203.86C36.5764 206.773 40.8197 209.687 45.2531 212.6C50.0664 215.64 54.6264 218.87 58.9331 222.29C63.3664 225.583 66.9764 229.447 69.7631 233.88C72.6764 238.187 74.1331 243.38 74.1331 249.46C74.1331 256.173 72.2964 262.063 68.6231 267.13C65.0764 272.197 60.1997 276.187 53.9931 279.1C47.9131 281.887 40.9464 283.28 33.0931 283.28C29.2931 283.28 25.3031 282.9 21.1231 282.14C17.0697 281.38 13.3331 280.43 9.91307 279.29C6.61974 278.15 4.21307 276.947 2.69307 275.68C2.1864 275.3 1.74307 274.92 1.36307 274.54C0.983074 274.033 0.793073 273.21 0.793073 272.07L0.223073 241.86C0.0964067 241.227 0.349741 240.91 0.983073 240.91C1.74307 240.783 2.1864 240.973 2.31307 241.48C4.21307 245.407 6.30307 249.587 8.58307 254.02C10.8631 258.327 13.3964 262.317 16.1831 265.99C19.0964 269.663 22.3264 272.703 25.8731 275.11C29.4197 277.39 33.4731 278.53 38.0331 278.53C40.9464 278.53 43.7331 278.023 46.3931 277.01C49.0531 275.997 51.2064 274.16 52.8531 271.5C54.6264 268.84 55.5131 265.167 55.5131 260.48C55.5131 254.527 54.1831 249.46 51.5231 245.28C48.8631 240.973 45.4431 237.237 41.2631 234.07C37.0831 230.777 32.7131 227.673 28.1531 224.76C23.7197 221.847 19.4764 218.87 15.4231 215.83C11.3697 212.663 8.0764 209.117 5.54307 205.19C3.00974 201.137 1.74307 196.323 1.74307 190.75C1.74307 183.657 3.7064 177.893 7.63307 173.46C11.6864 168.9 16.7531 165.543 22.8331 163.39C29.0397 161.237 35.3097 160.16 41.6431 160.16C46.2031 160.16 50.7631 160.603 55.3231 161.49C59.8831 162.25 63.4931 163.2 66.1531 164.34C67.4197 164.847 68.1797 165.417 68.4331 166.05C68.8131 166.683 69.0031 167.38 69.0031 168.14V196.07C69.0031 196.45 68.6864 196.767 68.0531 197.02C67.5464 197.147 67.1664 197.02 66.9131 196.64C66.1531 195.12 65.0764 192.65 63.6831 189.23C62.2897 185.683 60.4531 182.01 58.1731 178.21C55.8931 174.41 52.9797 171.18 49.4331 168.52C45.8864 165.733 41.5797 164.34 36.5131 164.34C33.3464 164.34 30.4331 164.973 27.7731 166.24C25.2397 167.507 23.1497 169.407 21.5031 171.94C19.9831 174.347 19.2231 177.513 19.2231 181.44ZM118.906 283.28C115.866 283.28 112.763 282.773 109.596 281.76C106.556 280.747 103.96 278.973 101.806 276.44C99.7796 273.907 98.7663 270.36 98.7663 265.8V223.62C98.7663 220.96 98.4496 218.87 97.8163 217.35C97.1829 215.83 96.1696 214.753 94.7763 214.12C93.3829 213.487 91.4829 213.17 89.0763 213.17C88.5696 213.17 88.3163 212.6 88.3163 211.46C88.3163 210.32 88.5696 209.75 89.0763 209.75C95.5363 209.497 100.793 208.103 104.846 205.57C108.9 202.91 111.94 199.047 113.966 193.98C114.22 193.473 114.726 193.22 115.486 193.22C116.373 193.22 116.816 193.473 116.816 193.98V259.53C116.816 264.597 118.083 268.207 120.616 270.36C123.276 272.513 126.506 273.59 130.306 273.59C133.22 273.59 135.943 273.02 138.476 271.88C141.136 270.613 143.353 269.283 145.126 267.89C145.506 267.51 145.95 267.637 146.456 268.27C147.09 268.777 147.153 269.22 146.646 269.6C141.96 274.287 137.4 277.77 132.966 280.05C128.66 282.203 123.973 283.28 118.906 283.28ZM140.756 217.35C135.563 216.21 130.496 215.45 125.556 215.07C120.743 214.563 115.613 214.31 110.166 214.31V209.37C115.36 209.37 120.426 209.18 125.366 208.8C130.433 208.42 135.816 207.977 141.516 207.47C141.77 207.47 142.023 207.977 142.276 208.99C142.656 209.877 142.846 210.89 142.846 212.03C142.846 213.297 142.593 214.563 142.086 215.83C141.706 216.97 141.263 217.477 140.756 217.35ZM192.424 283.28C184.191 283.28 177.161 281.57 171.334 278.15C165.634 274.73 161.264 270.233 158.224 264.66C155.311 258.96 153.854 252.88 153.854 246.42C153.854 238.947 155.691 232.17 159.364 226.09C163.038 220.01 168.104 215.133 174.564 211.46C181.024 207.787 188.434 205.95 196.794 205.95C204.268 205.95 210.221 207.66 214.654 211.08C219.214 214.5 221.494 220.073 221.494 227.8C221.494 229.447 221.368 230.84 221.114 231.98C220.861 233.12 220.291 233.69 219.404 233.69H201.164C201.418 226.47 200.721 220.707 199.074 216.4C197.428 211.967 194.261 209.75 189.574 209.75C184.508 209.75 180.454 212.347 177.414 217.54C174.501 222.733 173.044 229.637 173.044 238.25C173.044 245.597 174.184 251.93 176.464 257.25C178.744 262.57 182.101 266.687 186.534 269.6C190.968 272.513 196.414 273.97 202.874 273.97C206.674 273.97 209.841 273.527 212.374 272.64C215.034 271.627 217.948 270.297 221.114 268.65C221.368 268.397 221.684 268.523 222.064 269.03C222.571 269.537 222.698 269.98 222.444 270.36C217.758 275.047 212.944 278.403 208.004 280.43C203.191 282.33 197.998 283.28 192.424 283.28ZM166.394 233.88L166.204 230.27L207.814 229.51V233.69L166.394 233.88ZM232.128 333.25C231.748 333.25 231.558 332.87 231.558 332.11C231.558 331.35 231.748 330.97 232.128 330.97C236.562 330.97 239.412 330.147 240.678 328.5C242.072 326.853 242.768 323.307 242.768 317.86V229.89C242.768 225.963 242.325 223.113 241.438 221.34C240.552 219.44 238.968 218.49 236.688 218.49C235.675 218.49 234.408 218.743 232.888 219.25C231.368 219.63 229.722 220.263 227.948 221.15C227.442 221.403 226.998 221.15 226.618 220.39C226.238 219.63 226.175 219.187 226.428 219.06L253.408 205.95C253.662 205.823 253.978 205.76 254.358 205.76C255.752 205.76 257.082 207.28 258.348 210.32C259.742 213.36 260.438 217.73 260.438 223.43V317.86C260.438 321.407 260.818 324.13 261.578 326.03C262.465 327.93 264.112 329.197 266.518 329.83C268.925 330.59 272.535 330.97 277.348 330.97C277.728 330.97 277.918 331.35 277.918 332.11C277.918 332.87 277.728 333.25 277.348 333.25C273.802 333.25 269.812 333.187 265.378 333.06C260.945 332.933 256.258 332.87 251.318 332.87C247.772 332.87 244.288 332.933 240.868 333.06C237.575 333.187 234.662 333.25 232.128 333.25ZM276.778 283.47C271.838 283.47 267.595 283.09 264.048 282.33C260.628 281.57 256.512 280.367 251.698 278.72L258.348 266.75C261.135 270.17 264.112 273.02 267.278 275.3C270.572 277.58 274.942 278.72 280.388 278.72C286.342 278.72 291.028 276.123 294.448 270.93C297.868 265.737 299.578 257.44 299.578 246.04C299.578 235.907 297.235 228.37 292.548 223.43C287.862 218.363 282.352 215.83 276.018 215.83C271.332 215.83 267.278 217.033 263.858 219.44C260.438 221.847 257.082 224.887 253.788 228.56L251.888 226.28C258.348 218.807 264.492 213.423 270.318 210.13C276.272 206.837 282.352 205.19 288.558 205.19C293.878 205.19 298.818 206.583 303.378 209.37C307.938 212.03 311.612 215.957 314.398 221.15C317.312 226.343 318.768 232.677 318.768 240.15C318.768 248.257 317.438 255.097 314.778 260.67C312.245 266.243 308.888 270.74 304.708 274.16C300.528 277.453 295.968 279.797 291.028 281.19C286.215 282.71 281.465 283.47 276.778 283.47ZM328.59 281C328.337 281 328.21 280.62 328.21 279.86C328.21 279.1 328.337 278.72 328.59 278.72C332.517 278.72 335.177 277.833 336.57 276.06C338.09 274.16 338.85 270.677 338.85 265.61V169.09C338.85 164.783 338.47 161.68 337.71 159.78C336.95 157.753 335.494 156.74 333.34 156.74C331.567 156.74 329.16 157.437 326.12 158.83C325.74 158.957 325.36 158.64 324.98 157.88C324.6 157.12 324.537 156.677 324.79 156.55L352.53 143.44C352.784 143.313 352.974 143.25 353.1 143.25C353.227 143.25 353.354 143.25 353.48 143.25C354.114 143.25 354.747 143.567 355.38 144.2C356.14 144.707 356.52 145.213 356.52 145.72V265.61C356.52 270.677 357.217 274.16 358.61 276.06C360.13 277.833 362.854 278.72 366.78 278.72C367.287 278.72 367.54 279.1 367.54 279.86C367.54 280.62 367.287 281 366.78 281C364.247 281 361.334 280.937 358.04 280.81C354.874 280.683 351.454 280.62 347.78 280.62C344.107 280.62 340.624 280.683 337.33 280.81C334.037 280.937 331.124 281 328.59 281ZM379.7 281C379.447 281 379.32 280.62 379.32 279.86C379.32 279.1 379.447 278.72 379.7 278.72C383.627 278.72 386.287 277.833 387.68 276.06C389.2 274.16 389.96 270.677 389.96 265.61V238.25C389.96 224.823 384.767 218.11 374.38 218.11C370.58 218.11 366.654 219.06 362.6 220.96C358.674 222.86 355.57 225.457 353.29 228.75L352.15 226.47C356.584 220.137 361.587 215.07 367.16 211.27C372.734 207.343 378.814 205.38 385.4 205.38C392.494 205.38 397.94 207.597 401.74 212.03C405.667 216.463 407.63 222.163 407.63 229.13V265.61C407.63 270.677 408.327 274.16 409.72 276.06C411.24 277.833 413.964 278.72 417.89 278.72C418.397 278.72 418.65 279.1 418.65 279.86C418.65 280.62 418.397 281 417.89 281C415.357 281 412.444 280.937 409.15 280.81C405.984 280.683 402.564 280.62 398.89 280.62C395.217 280.62 391.734 280.683 388.44 280.81C385.147 280.937 382.234 281 379.7 281ZM481.88 282.14C481.374 282.393 480.74 282.52 479.98 282.52C477.7 282.52 475.42 281 473.14 277.96C470.86 274.92 469.72 270.55 469.72 264.85V232.55C469.72 224.57 469.087 218.743 467.82 215.07C466.554 211.27 464.274 209.37 460.98 209.37C457.814 209.37 455.407 210.383 453.76 212.41C452.24 214.31 451.164 216.463 450.53 218.87C450.024 221.277 449.707 223.303 449.58 224.95C449.2 228.877 448.06 231.663 446.16 233.31C444.26 234.83 441.727 235.59 438.56 235.59C435.267 235.59 432.924 234.893 431.53 233.5C430.137 232.107 429.44 230.397 429.44 228.37C429.44 225.33 430.77 222.48 433.43 219.82C436.217 217.033 439.7 214.627 443.88 212.6C448.06 210.447 452.367 208.8 456.8 207.66C461.36 206.393 465.35 205.76 468.77 205.76C473.964 205.76 478.397 207.407 482.07 210.7C485.744 213.993 487.58 219.377 487.58 226.85V260.48C487.58 264.153 488.214 267.003 489.48 269.03C490.874 271.057 492.774 272.07 495.18 272.07C496.954 272.07 498.79 271.627 500.69 270.74C501.197 270.487 501.577 270.74 501.83 271.5C502.21 272.133 502.084 272.577 501.45 272.83L481.88 282.14ZM445.4 282.33C439.827 282.33 435.647 281.127 432.86 278.72C430.2 276.187 428.87 272.83 428.87 268.65C428.87 264.47 430.01 261.303 432.29 259.15C434.57 256.87 437.547 255.097 441.22 253.83C444.894 252.437 448.694 251.043 452.62 249.65L471.62 242.62L472.38 245.47L461.55 250.41C460.537 250.79 459.08 251.423 457.18 252.31C455.28 253.07 453.57 254.273 452.05 255.92C450.53 257.44 449.77 259.657 449.77 262.57C449.77 265.863 450.847 268.333 453 269.98C455.154 271.5 457.307 272.26 459.46 272.26C460.474 272.26 461.424 272.133 462.31 271.88C463.324 271.627 464.464 271.057 465.73 270.17L475.23 263.71L475.42 266.75L462.12 276.25C459.334 278.403 456.674 279.987 454.14 281C451.607 281.887 448.694 282.33 445.4 282.33ZM559.761 281C559.381 281 559.191 280.62 559.191 279.86C559.191 279.1 559.381 278.72 559.761 278.72C563.688 278.72 566.348 277.833 567.741 276.06C569.134 274.16 569.831 270.677 569.831 265.61V238.25C569.831 231.41 568.564 226.343 566.031 223.05C563.624 219.757 559.761 218.11 554.441 218.11C550.641 218.11 546.714 219.06 542.661 220.96C538.734 222.86 535.568 225.457 533.161 228.75L532.211 226.47C536.644 220.137 541.648 215.07 547.221 211.27C552.794 207.343 558.874 205.38 565.461 205.38C572.554 205.38 578.001 207.597 581.801 212.03C585.728 216.463 587.691 222.163 587.691 229.13V265.61C587.691 270.677 588.388 274.16 589.781 276.06C591.301 277.833 594.024 278.72 597.951 278.72C598.331 278.72 598.521 279.1 598.521 279.86C598.521 280.62 598.331 281 597.951 281C595.418 281 592.504 280.937 589.211 280.81C585.918 280.683 582.434 280.62 578.761 280.62C575.214 280.62 571.794 280.683 568.501 280.81C565.208 280.937 562.294 281 559.761 281ZM508.651 281C508.271 281 508.081 280.62 508.081 279.86C508.081 279.1 508.271 278.72 508.651 278.72C512.578 278.72 515.238 277.833 516.631 276.06C518.024 274.16 518.721 270.677 518.721 265.61V229.89C518.721 225.963 518.278 223.113 517.391 221.34C516.504 219.44 514.984 218.49 512.831 218.49C511.691 218.49 510.361 218.743 508.841 219.25C507.321 219.63 505.611 220.263 503.711 221.15C503.204 221.403 502.824 221.15 502.571 220.39C502.318 219.63 502.318 219.187 502.571 219.06L528.981 206.14C529.741 205.887 530.184 205.76 530.311 205.76C531.704 205.76 533.098 207.28 534.491 210.32C535.884 213.36 536.581 217.73 536.581 223.43V265.61C536.581 270.677 537.278 274.16 538.671 276.06C540.191 277.833 542.914 278.72 546.841 278.72C547.221 278.72 547.411 279.1 547.411 279.86C547.411 280.62 547.221 281 546.841 281C544.308 281 541.394 280.937 538.101 280.81C534.808 280.683 531.324 280.62 527.651 280.62C524.104 280.62 520.684 280.683 517.391 280.81C514.098 280.937 511.184 281 508.651 281ZM685.041 207.66C685.294 207.66 685.421 208.04 685.421 208.8C685.421 209.56 685.294 209.94 685.041 209.94C680.734 209.94 677.124 211.777 674.211 215.45C671.298 219.123 668.701 224.063 666.421 230.27L645.331 286.32C640.771 298.48 636.338 308.043 632.031 315.01C627.851 322.103 623.608 327.107 619.301 330.02C614.994 332.933 610.434 334.39 605.621 334.39C601.948 334.39 599.098 333.567 597.071 331.92C594.918 330.4 593.841 328.12 593.841 325.08C593.841 322.04 594.791 319.76 596.691 318.24C598.464 316.847 600.554 316.15 602.961 316.15C605.114 316.15 606.824 316.53 608.091 317.29C609.358 318.177 610.624 319 611.891 319.76C613.158 320.647 614.804 321.09 616.831 321.09C619.871 321.09 622.658 319.76 625.191 317.1C627.724 314.567 630.448 310.133 633.361 303.8C636.274 297.593 639.694 289.043 643.621 278.15L643.051 288.6L610.751 223.43C607.964 217.857 605.748 214.247 604.101 212.6C602.581 210.827 600.681 209.94 598.401 209.94C598.021 209.94 597.831 209.56 597.831 208.8C597.831 208.04 598.021 207.66 598.401 207.66C600.934 207.66 603.594 207.723 606.381 207.85C609.294 207.977 612.018 208.04 614.551 208.04C619.111 208.04 623.101 207.977 626.521 207.85C629.941 207.723 633.044 207.66 635.831 207.66C636.211 207.66 636.401 208.04 636.401 208.8C636.401 209.56 636.211 209.94 635.831 209.94C631.398 209.94 628.548 210.447 627.281 211.46C626.014 212.473 626.078 214.437 627.471 217.35L651.601 266.75L644.761 277.96L661.291 230.08C663.444 223.873 663.571 218.997 661.671 215.45C659.898 211.777 656.414 209.94 651.221 209.94C650.968 209.94 650.841 209.56 650.841 208.8C650.841 208.04 650.968 207.66 651.221 207.66C654.261 207.66 657.111 207.723 659.771 207.85C662.558 207.977 666.104 208.04 670.411 208.04C673.451 208.04 675.921 207.977 677.821 207.85C679.848 207.723 682.254 207.66 685.041 207.66Z" fill="#241E1A"/>
</g>
<defs>
<clipPath id="clip0_293_13">
<rect width="686" height="335" fill="white"/>
</clipPath>
</defs>
</svg>
