<svg width="686" height="335" viewBox="0 0 686 335" fill="none" xmlns="http://www.w3.org/2000/svg">
<path d="M54.2948 121.85C54.2948 125.65 54.6748 128.563 55.4348 130.59C56.3215 132.49 58.0948 133.82 60.7548 134.58C63.4148 135.34 67.3415 135.72 72.5348 135.72C72.9148 135.72 73.1048 136.1 73.1048 136.86C73.1048 137.62 72.9148 138 72.5348 138C68.4815 138 64.0482 137.937 59.2348 137.81C54.5482 137.683 49.4182 137.62 43.8448 137.62C39.2848 137.62 34.9148 137.683 30.7348 137.81C26.6815 137.937 23.0082 138 19.7148 138C19.3348 138 19.1448 137.62 19.1448 136.86C19.1448 136.1 19.3348 135.72 19.7148 135.72C23.6415 135.72 26.5548 135.403 28.4548 134.77C30.3548 134.137 31.6215 132.87 32.2548 130.97C32.8882 129.07 33.2048 126.283 33.2048 122.61V34.64C33.2048 30.9667 32.8882 28.2433 32.2548 26.47C31.6215 24.57 30.3548 23.3033 28.4548 22.67C26.5548 21.91 23.6415 21.53 19.7148 21.53C19.3348 21.53 19.1448 21.15 19.1448 20.39C19.1448 19.63 19.3348 19.25 19.7148 19.25C23.0082 19.25 26.6815 19.3767 30.7348 19.63C34.7882 19.7567 39.0948 19.82 43.6548 19.82C46.6948 19.82 50.6848 19.63 55.6248 19.25C60.5648 18.87 65.1882 18.68 69.4948 18.68C77.4748 18.68 84.5048 19.7567 90.5848 21.91C96.7915 23.9367 101.731 27.23 105.405 31.79C109.078 36.35 111.041 42.3667 111.295 49.84C111.548 56.3 110.471 61.9367 108.065 66.75C105.785 71.5633 102.555 75.5533 98.3748 78.72C94.3215 81.8867 89.7615 84.2933 84.6948 85.94C79.7548 87.46 74.8148 88.22 69.8748 88.22C68.6082 88.22 67.1515 88.1567 65.5048 88.03C63.9848 87.9033 62.4648 87.65 60.9448 87.27C60.5648 87.1433 60.4382 86.7 60.5648 85.94C60.6915 85.0533 61.0082 84.6733 61.5148 84.8C62.5282 85.0533 63.6682 85.2433 64.9348 85.37C66.2015 85.4967 67.2148 85.56 67.9748 85.56C71.6482 85.56 75.0048 84.42 78.0448 82.14C81.0848 79.86 83.5548 76.3767 85.4548 71.69C87.3548 67.0033 88.3048 61.1767 88.3048 54.21C88.3048 47.4967 87.3548 41.86 85.4548 37.3C83.5548 32.6133 80.7682 29.0667 77.0948 26.66C73.4215 24.1267 68.8615 22.86 63.4148 22.86C61.1348 22.86 59.2982 23.1767 57.9048 23.81C56.6382 24.4433 55.6882 25.6467 55.0548 27.42C54.5482 29.1933 54.2948 31.7267 54.2948 35.02V121.85ZM122.264 138C122.011 138 121.884 137.62 121.884 136.86C121.884 136.1 122.011 135.72 122.264 135.72C126.191 135.72 128.851 134.833 130.244 133.06C131.764 131.16 132.524 127.677 132.524 122.61V26.09C132.524 21.7833 132.144 18.68 131.384 16.78C130.624 14.7533 129.168 13.74 127.014 13.74C125.241 13.74 122.834 14.4367 119.794 15.83C119.414 15.9567 119.034 15.64 118.654 14.88C118.274 14.12 118.211 13.6767 118.464 13.55L146.204 0.439993C146.458 0.313328 146.648 0.249995 146.774 0.249995C146.901 0.249995 147.028 0.249995 147.154 0.249995C147.788 0.249995 148.421 0.566662 149.054 1.19999C149.814 1.70666 150.194 2.21333 150.194 2.72V122.61C150.194 127.677 150.891 131.16 152.284 133.06C153.804 134.833 156.528 135.72 160.454 135.72C160.961 135.72 161.214 136.1 161.214 136.86C161.214 137.62 160.961 138 160.454 138C157.921 138 155.008 137.937 151.714 137.81C148.548 137.683 145.128 137.62 141.454 137.62C137.781 137.62 134.298 137.683 131.004 137.81C127.711 137.937 124.798 138 122.264 138ZM173.374 138C173.121 138 172.994 137.62 172.994 136.86C172.994 136.1 173.121 135.72 173.374 135.72C177.301 135.72 179.961 134.833 181.354 133.06C182.874 131.16 183.634 127.677 183.634 122.61V95.25C183.634 81.8233 178.441 75.11 168.054 75.11C164.254 75.11 160.328 76.06 156.274 77.96C152.348 79.86 149.244 82.4567 146.964 85.75L145.824 83.47C150.258 77.1367 155.261 72.07 160.834 68.27C166.408 64.3433 172.488 62.38 179.074 62.38C186.168 62.38 191.614 64.5967 195.414 69.03C199.341 73.4633 201.304 79.1633 201.304 86.13V122.61C201.304 127.677 202.001 131.16 203.394 133.06C204.914 134.833 207.638 135.72 211.564 135.72C212.071 135.72 212.324 136.1 212.324 136.86C212.324 137.62 212.071 138 211.564 138C209.031 138 206.118 137.937 202.824 137.81C199.658 137.683 196.238 137.62 192.564 137.62C188.891 137.62 185.408 137.683 182.114 137.81C178.821 137.937 175.908 138 173.374 138ZM222.354 138C221.974 138 221.784 137.62 221.784 136.86C221.784 136.1 221.974 135.72 222.354 135.72C226.281 135.72 228.941 134.833 230.334 133.06C231.728 131.16 232.424 127.677 232.424 122.61V88.6C232.424 84.42 231.981 81.38 231.094 79.48C230.334 77.4533 228.878 76.44 226.724 76.44C225.838 76.44 224.761 76.63 223.494 77.01C222.354 77.39 221.088 77.8967 219.694 78.53C219.188 78.6567 218.744 78.34 218.364 77.58C218.111 76.82 218.174 76.3767 218.554 76.25L247.244 62.95C247.498 62.8233 247.688 62.76 247.814 62.76C248.448 62.76 249.081 63.0767 249.714 63.71C250.348 64.3433 250.664 64.9133 250.664 65.42C250.664 66.94 250.601 69.4733 250.474 73.02C250.348 76.5667 250.284 81.6333 250.284 88.22V122.61C250.284 127.677 250.981 131.16 252.374 133.06C253.894 134.833 256.618 135.72 260.544 135.72C260.924 135.72 261.114 136.1 261.114 136.86C261.114 137.62 260.924 138 260.544 138C258.011 138 255.098 137.937 251.804 137.81C248.511 137.683 245.028 137.62 241.354 137.62C237.808 137.62 234.388 137.683 231.094 137.81C227.801 137.937 224.888 138 222.354 138ZM240.594 43.95C237.048 43.95 234.198 42.9367 232.044 40.91C230.018 38.8833 229.004 36.0333 229.004 32.36C229.004 29.0667 230.018 26.47 232.044 24.57C234.198 22.5433 237.048 21.53 240.594 21.53C244.141 21.53 246.864 22.5433 248.764 24.57C250.664 26.47 251.614 29.0667 251.614 32.36C251.614 40.0867 247.941 43.95 240.594 43.95ZM271.506 138C271.253 138 271.126 137.62 271.126 136.86C271.126 136.1 271.253 135.72 271.506 135.72C275.433 135.72 278.093 134.833 279.486 133.06C281.006 131.16 281.766 127.677 281.766 122.61L281.956 26.09C281.956 21.7833 281.576 18.68 280.816 16.78C280.056 14.7533 278.6 13.74 276.446 13.74C274.8 13.74 272.393 14.4367 269.226 15.83C268.846 15.9567 268.466 15.64 268.086 14.88C267.706 14.12 267.643 13.6767 267.896 13.55L295.826 0.439993C296.08 0.313328 296.333 0.249995 296.586 0.249995C297.22 0.249995 297.916 0.566662 298.676 1.19999C299.436 1.70666 299.816 2.21333 299.816 2.72V122.61C299.816 127.677 300.513 131.16 301.906 133.06C303.3 134.833 305.96 135.72 309.886 135.72C310.393 135.72 310.646 136.1 310.646 136.86C310.646 137.62 310.393 138 309.886 138C307.48 138 304.566 137.937 301.146 137.81C297.853 137.683 294.37 137.62 290.696 137.62C287.023 137.62 283.54 137.683 280.246 137.81C276.953 137.937 274.04 138 271.506 138ZM323.106 138C322.726 138 322.536 137.62 322.536 136.86C322.536 136.1 322.726 135.72 323.106 135.72C327.033 135.72 329.693 134.833 331.086 133.06C332.48 131.16 333.176 127.677 333.176 122.61V88.6C333.176 84.42 332.733 81.38 331.846 79.48C331.086 77.4533 329.63 76.44 327.476 76.44C326.59 76.44 325.513 76.63 324.246 77.01C323.106 77.39 321.84 77.8967 320.446 78.53C319.94 78.6567 319.496 78.34 319.116 77.58C318.863 76.82 318.926 76.3767 319.306 76.25L347.996 62.95C348.25 62.8233 348.44 62.76 348.566 62.76C349.2 62.76 349.833 63.0767 350.466 63.71C351.1 64.3433 351.416 64.9133 351.416 65.42C351.416 66.94 351.353 69.4733 351.226 73.02C351.1 76.5667 351.036 81.6333 351.036 88.22V122.61C351.036 127.677 351.733 131.16 353.126 133.06C354.646 134.833 357.37 135.72 361.296 135.72C361.676 135.72 361.866 136.1 361.866 136.86C361.866 137.62 361.676 138 361.296 138C358.763 138 355.85 137.937 352.556 137.81C349.263 137.683 345.78 137.62 342.106 137.62C338.56 137.62 335.14 137.683 331.846 137.81C328.553 137.937 325.64 138 323.106 138ZM341.346 43.95C337.8 43.95 334.95 42.9367 332.796 40.91C330.77 38.8833 329.756 36.0333 329.756 32.36C329.756 29.0667 330.77 26.47 332.796 24.57C334.95 22.5433 337.8 21.53 341.346 21.53C344.893 21.53 347.616 22.5433 349.516 24.57C351.416 26.47 352.366 29.0667 352.366 32.36C352.366 40.0867 348.693 43.95 341.346 43.95ZM370.548 190.25C370.168 190.25 369.978 189.87 369.978 189.11C369.978 188.35 370.168 187.97 370.548 187.97C374.982 187.97 377.832 187.147 379.098 185.5C380.492 183.853 381.188 180.307 381.188 174.86V86.89C381.188 82.9633 380.745 80.1133 379.858 78.34C378.972 76.44 377.388 75.49 375.108 75.49C374.095 75.49 372.828 75.7433 371.308 76.25C369.788 76.63 368.142 77.2633 366.368 78.15C365.862 78.4033 365.418 78.15 365.038 77.39C364.658 76.63 364.595 76.1867 364.848 76.06L391.828 62.95C392.082 62.8233 392.398 62.76 392.778 62.76C394.172 62.76 395.502 64.28 396.768 67.32C398.162 70.36 398.858 74.73 398.858 80.43V174.86C398.858 178.407 399.238 181.13 399.998 183.03C400.885 184.93 402.532 186.197 404.938 186.83C407.345 187.59 410.955 187.97 415.768 187.97C416.148 187.97 416.338 188.35 416.338 189.11C416.338 189.87 416.148 190.25 415.768 190.25C412.222 190.25 408.232 190.187 403.798 190.06C399.365 189.933 394.678 189.87 389.738 189.87C386.192 189.87 382.708 189.933 379.288 190.06C375.995 190.187 373.082 190.25 370.548 190.25ZM415.198 140.47C410.258 140.47 406.015 140.09 402.468 139.33C399.048 138.57 394.932 137.367 390.118 135.72L396.768 123.75C399.555 127.17 402.532 130.02 405.698 132.3C408.992 134.58 413.362 135.72 418.808 135.72C424.762 135.72 429.448 133.123 432.868 127.93C436.288 122.737 437.998 114.44 437.998 103.04C437.998 92.9067 435.655 85.37 430.968 80.43C426.282 75.3633 420.772 72.83 414.438 72.83C409.752 72.83 405.698 74.0333 402.278 76.44C398.858 78.8467 395.502 81.8867 392.208 85.56L390.308 83.28C396.768 75.8067 402.912 70.4233 408.738 67.13C414.692 63.8367 420.772 62.19 426.978 62.19C432.298 62.19 437.238 63.5833 441.798 66.37C446.358 69.03 450.032 72.9567 452.818 78.15C455.732 83.3433 457.188 89.6767 457.188 97.15C457.188 105.257 455.858 112.097 453.198 117.67C450.665 123.243 447.308 127.74 443.128 131.16C438.948 134.453 434.388 136.797 429.448 138.19C424.635 139.71 419.885 140.47 415.198 140.47ZM648.532 62.19C652.965 62.19 655.182 64.66 655.182 69.6C655.182 73.1467 654.042 76.82 651.762 80.62C649.608 84.2933 646.758 87.3333 643.212 89.74C639.665 92.1467 635.928 93.35 632.002 93.35C628.835 93.35 624.528 92.21 619.082 89.93C616.422 106.017 610.468 118.43 601.222 127.17C591.975 135.91 580.765 140.28 567.592 140.28C558.345 140.28 550.112 138.253 542.892 134.2C535.798 130.02 530.288 124.51 526.362 117.67C522.435 110.703 520.472 103.23 520.472 95.25C520.472 91.9567 520.852 88.6 521.612 85.18C523.005 78.34 525.792 72.26 529.972 66.94C534.278 61.4933 539.472 57.25 545.552 54.21C551.758 51.17 558.345 49.65 565.312 49.65C571.518 49.65 576.838 50.7267 581.272 52.88C587.478 45.66 590.582 39.58 590.582 34.64C590.582 32.2333 590.138 30.46 589.252 29.32C588.365 28.0533 586.972 26.85 585.072 25.71C583.172 24.57 581.778 23.43 580.892 22.29C580.005 21.15 579.562 19.3767 579.562 16.97C579.562 14.0567 580.385 11.7133 582.032 9.94C583.805 8.16666 586.148 7.28 589.062 7.28C592.735 7.28 595.522 8.73666 597.422 11.65C599.322 14.5633 600.272 18.3633 600.272 23.05C600.272 30.9033 597.865 38.5033 593.052 45.85C588.365 53.1967 582.538 59.9733 575.572 66.18C568.605 72.26 559.105 79.9867 547.072 89.36L539.092 95.63C540.485 106.017 544.475 114.25 551.062 120.33C557.775 126.283 565.628 129.26 574.622 129.26C581.082 129.26 587.162 127.613 592.862 124.32C598.562 121.027 603.375 116.277 607.302 110.07C611.228 103.737 613.825 96.39 615.092 88.03C614.585 87.7767 612.938 86.89 610.152 85.37C604.705 82.5833 600.525 80.62 597.612 79.48C594.698 78.2133 591.848 77.58 589.062 77.58C586.908 77.58 585.325 77.96 584.312 78.72C583.298 79.3533 582.792 80.3033 582.792 81.57C582.792 83.09 583.615 84.8 585.262 86.7C586.908 88.8533 587.732 90.6267 587.732 92.02C587.732 93.54 587.162 94.9333 586.022 96.2C585.008 97.34 583.425 97.91 581.272 97.91C579.372 97.91 577.725 97.34 576.332 96.2C575.065 94.9333 574.432 93.0333 574.432 90.5C574.432 86.8267 575.698 83.1533 578.232 79.48C580.892 75.8067 584.248 72.83 588.302 70.55C592.355 68.1433 596.472 66.94 600.652 66.94C603.945 66.94 607.302 67.6367 610.722 69.03C614.142 70.2967 618.512 72.26 623.832 74.92C628.138 77.0733 631.685 78.72 634.472 79.86C637.258 81 639.792 81.57 642.072 81.57C643.718 81.57 645.048 81.2533 646.062 80.62C647.202 79.9867 647.772 79.1 647.772 77.96C647.772 77.0733 646.948 75.8067 645.302 74.16C644.035 72.8933 643.085 71.88 642.452 71.12C641.945 70.2333 641.692 69.0933 641.692 67.7C641.692 66.0533 642.262 64.7233 643.402 63.71C644.668 62.6967 646.378 62.19 648.532 62.19ZM539.282 79.1C538.648 83.28 538.458 87.2067 538.712 90.88C540.992 88.98 542.195 87.9667 542.322 87.84C553.468 79.1 561.765 72.1967 567.212 67.13C564.805 59.2767 560.752 55.35 555.052 55.35C550.872 55.35 547.452 57.5667 544.792 62C542.132 66.4333 540.295 72.1333 539.282 79.1ZM19.225 181.44C19.225 186.253 20.4283 190.497 22.835 194.17C25.3683 197.717 28.5983 200.947 32.525 203.86C36.5783 206.773 40.8216 209.687 45.255 212.6C50.0683 215.64 54.6283 218.87 58.935 222.29C63.3683 225.583 66.9783 229.447 69.765 233.88C72.6783 238.187 74.135 243.38 74.135 249.46C74.135 256.173 72.2983 262.063 68.625 267.13C65.0783 272.197 60.2016 276.187 53.995 279.1C47.915 281.887 40.9483 283.28 33.095 283.28C29.295 283.28 25.305 282.9 21.125 282.14C17.0716 281.38 13.335 280.43 9.91498 279.29C6.62165 278.15 4.21498 276.947 2.69498 275.68C2.18831 275.3 1.74498 274.92 1.36498 274.54C0.984979 274.033 0.794979 273.21 0.794979 272.07L0.224978 241.86C0.0983122 241.227 0.351646 240.91 0.984978 240.91C1.74498 240.783 2.18831 240.973 2.31498 241.48C4.21498 245.407 6.30498 249.587 8.58498 254.02C10.865 258.327 13.3983 262.317 16.185 265.99C19.0983 269.663 22.3283 272.703 25.875 275.11C29.4216 277.39 33.475 278.53 38.035 278.53C40.9483 278.53 43.735 278.023 46.395 277.01C49.055 275.997 51.2083 274.16 52.855 271.5C54.6283 268.84 55.515 265.167 55.515 260.48C55.515 254.527 54.185 249.46 51.525 245.28C48.865 240.973 45.445 237.237 41.265 234.07C37.085 230.777 32.715 227.673 28.155 224.76C23.7216 221.847 19.4783 218.87 15.425 215.83C11.3716 212.663 8.07831 209.117 5.54498 205.19C3.01165 201.137 1.74498 196.323 1.74498 190.75C1.74498 183.657 3.70831 177.893 7.63498 173.46C11.6883 168.9 16.755 165.543 22.835 163.39C29.0416 161.237 35.3116 160.16 41.645 160.16C46.205 160.16 50.765 160.603 55.325 161.49C59.885 162.25 63.495 163.2 66.155 164.34C67.4216 164.847 68.1816 165.417 68.435 166.05C68.815 166.683 69.005 167.38 69.005 168.14V196.07C69.005 196.45 68.6883 196.767 68.055 197.02C67.5483 197.147 67.1683 197.02 66.915 196.64C66.155 195.12 65.0783 192.65 63.685 189.23C62.2916 185.683 60.455 182.01 58.175 178.21C55.895 174.41 52.9816 171.18 49.435 168.52C45.8883 165.733 41.5816 164.34 36.515 164.34C33.3483 164.34 30.435 164.973 27.775 166.24C25.2416 167.507 23.1516 169.407 21.505 171.94C19.985 174.347 19.225 177.513 19.225 181.44ZM118.908 283.28C115.868 283.28 112.765 282.773 109.598 281.76C106.558 280.747 103.962 278.973 101.808 276.44C99.7815 273.907 98.7682 270.36 98.7682 265.8V223.62C98.7682 220.96 98.4515 218.87 97.8182 217.35C97.1848 215.83 96.1715 214.753 94.7782 214.12C93.3848 213.487 91.4848 213.17 89.0782 213.17C88.5715 213.17 88.3182 212.6 88.3182 211.46C88.3182 210.32 88.5715 209.75 89.0782 209.75C95.5382 209.497 100.795 208.103 104.848 205.57C108.902 202.91 111.942 199.047 113.968 193.98C114.222 193.473 114.728 193.22 115.488 193.22C116.375 193.22 116.818 193.473 116.818 193.98V259.53C116.818 264.597 118.085 268.207 120.618 270.36C123.278 272.513 126.508 273.59 130.308 273.59C133.222 273.59 135.945 273.02 138.478 271.88C141.138 270.613 143.355 269.283 145.128 267.89C145.508 267.51 145.952 267.637 146.458 268.27C147.092 268.777 147.155 269.22 146.648 269.6C141.962 274.287 137.402 277.77 132.968 280.05C128.662 282.203 123.975 283.28 118.908 283.28ZM140.758 217.35C135.565 216.21 130.498 215.45 125.558 215.07C120.745 214.563 115.615 214.31 110.168 214.31V209.37C115.362 209.37 120.428 209.18 125.368 208.8C130.435 208.42 135.818 207.977 141.518 207.47C141.772 207.47 142.025 207.977 142.278 208.99C142.658 209.877 142.848 210.89 142.848 212.03C142.848 213.297 142.595 214.563 142.088 215.83C141.708 216.97 141.265 217.477 140.758 217.35ZM192.426 283.28C184.193 283.28 177.163 281.57 171.336 278.15C165.636 274.73 161.266 270.233 158.226 264.66C155.313 258.96 153.856 252.88 153.856 246.42C153.856 238.947 155.693 232.17 159.366 226.09C163.04 220.01 168.106 215.133 174.566 211.46C181.026 207.787 188.436 205.95 196.796 205.95C204.27 205.95 210.223 207.66 214.656 211.08C219.216 214.5 221.496 220.073 221.496 227.8C221.496 229.447 221.37 230.84 221.116 231.98C220.863 233.12 220.293 233.69 219.406 233.69H201.166C201.42 226.47 200.723 220.707 199.076 216.4C197.43 211.967 194.263 209.75 189.576 209.75C184.51 209.75 180.456 212.347 177.416 217.54C174.503 222.733 173.046 229.637 173.046 238.25C173.046 245.597 174.186 251.93 176.466 257.25C178.746 262.57 182.103 266.687 186.536 269.6C190.97 272.513 196.416 273.97 202.876 273.97C206.676 273.97 209.843 273.527 212.376 272.64C215.036 271.627 217.95 270.297 221.116 268.65C221.37 268.397 221.686 268.523 222.066 269.03C222.573 269.537 222.7 269.98 222.446 270.36C217.76 275.047 212.946 278.403 208.006 280.43C203.193 282.33 198 283.28 192.426 283.28ZM166.396 233.88L166.206 230.27L207.816 229.51V233.69L166.396 233.88ZM232.13 333.25C231.75 333.25 231.56 332.87 231.56 332.11C231.56 331.35 231.75 330.97 232.13 330.97C236.564 330.97 239.414 330.147 240.68 328.5C242.074 326.853 242.77 323.307 242.77 317.86V229.89C242.77 225.963 242.327 223.113 241.44 221.34C240.554 219.44 238.97 218.49 236.69 218.49C235.677 218.49 234.41 218.743 232.89 219.25C231.37 219.63 229.724 220.263 227.95 221.15C227.444 221.403 227 221.15 226.62 220.39C226.24 219.63 226.177 219.187 226.43 219.06L253.41 205.95C253.664 205.823 253.98 205.76 254.36 205.76C255.754 205.76 257.084 207.28 258.35 210.32C259.744 213.36 260.44 217.73 260.44 223.43V317.86C260.44 321.407 260.82 324.13 261.58 326.03C262.467 327.93 264.114 329.197 266.52 329.83C268.927 330.59 272.537 330.97 277.35 330.97C277.73 330.97 277.92 331.35 277.92 332.11C277.92 332.87 277.73 333.25 277.35 333.25C273.804 333.25 269.814 333.187 265.38 333.06C260.947 332.933 256.26 332.87 251.32 332.87C247.774 332.87 244.29 332.933 240.87 333.06C237.577 333.187 234.664 333.25 232.13 333.25ZM276.78 283.47C271.84 283.47 267.597 283.09 264.05 282.33C260.63 281.57 256.514 280.367 251.7 278.72L258.35 266.75C261.137 270.17 264.114 273.02 267.28 275.3C270.574 277.58 274.944 278.72 280.39 278.72C286.344 278.72 291.03 276.123 294.45 270.93C297.87 265.737 299.58 257.44 299.58 246.04C299.58 235.907 297.237 228.37 292.55 223.43C287.864 218.363 282.354 215.83 276.02 215.83C271.334 215.83 267.28 217.033 263.86 219.44C260.44 221.847 257.084 224.887 253.79 228.56L251.89 226.28C258.35 218.807 264.494 213.423 270.32 210.13C276.274 206.837 282.354 205.19 288.56 205.19C293.88 205.19 298.82 206.583 303.38 209.37C307.94 212.03 311.614 215.957 314.4 221.15C317.314 226.343 318.77 232.677 318.77 240.15C318.77 248.257 317.44 255.097 314.78 260.67C312.247 266.243 308.89 270.74 304.71 274.16C300.53 277.453 295.97 279.797 291.03 281.19C286.217 282.71 281.467 283.47 276.78 283.47ZM328.592 281C328.339 281 328.212 280.62 328.212 279.86C328.212 279.1 328.339 278.72 328.592 278.72C332.519 278.72 335.179 277.833 336.572 276.06C338.092 274.16 338.852 270.677 338.852 265.61V169.09C338.852 164.783 338.472 161.68 337.712 159.78C336.952 157.753 335.496 156.74 333.342 156.74C331.569 156.74 329.162 157.437 326.122 158.83C325.742 158.957 325.362 158.64 324.982 157.88C324.602 157.12 324.539 156.677 324.792 156.55L352.532 143.44C352.786 143.313 352.976 143.25 353.102 143.25C353.229 143.25 353.356 143.25 353.482 143.25C354.116 143.25 354.749 143.567 355.382 144.2C356.142 144.707 356.522 145.213 356.522 145.72V265.61C356.522 270.677 357.219 274.16 358.612 276.06C360.132 277.833 362.856 278.72 366.782 278.72C367.289 278.72 367.542 279.1 367.542 279.86C367.542 280.62 367.289 281 366.782 281C364.249 281 361.336 280.937 358.042 280.81C354.876 280.683 351.456 280.62 347.782 280.62C344.109 280.62 340.626 280.683 337.332 280.81C334.039 280.937 331.126 281 328.592 281ZM379.702 281C379.449 281 379.322 280.62 379.322 279.86C379.322 279.1 379.449 278.72 379.702 278.72C383.629 278.72 386.289 277.833 387.682 276.06C389.202 274.16 389.962 270.677 389.962 265.61V238.25C389.962 224.823 384.769 218.11 374.382 218.11C370.582 218.11 366.656 219.06 362.602 220.96C358.676 222.86 355.572 225.457 353.292 228.75L352.152 226.47C356.586 220.137 361.589 215.07 367.162 211.27C372.736 207.343 378.816 205.38 385.402 205.38C392.496 205.38 397.942 207.597 401.742 212.03C405.669 216.463 407.632 222.163 407.632 229.13V265.61C407.632 270.677 408.329 274.16 409.722 276.06C411.242 277.833 413.966 278.72 417.892 278.72C418.399 278.72 418.652 279.1 418.652 279.86C418.652 280.62 418.399 281 417.892 281C415.359 281 412.446 280.937 409.152 280.81C405.986 280.683 402.566 280.62 398.892 280.62C395.219 280.62 391.736 280.683 388.442 280.81C385.149 280.937 382.236 281 379.702 281ZM481.882 282.14C481.376 282.393 480.742 282.52 479.982 282.52C477.702 282.52 475.422 281 473.142 277.96C470.862 274.92 469.722 270.55 469.722 264.85V232.55C469.722 224.57 469.089 218.743 467.822 215.07C466.556 211.27 464.276 209.37 460.982 209.37C457.816 209.37 455.409 210.383 453.762 212.41C452.242 214.31 451.166 216.463 450.532 218.87C450.026 221.277 449.709 223.303 449.582 224.95C449.202 228.877 448.062 231.663 446.162 233.31C444.262 234.83 441.729 235.59 438.562 235.59C435.269 235.59 432.926 234.893 431.532 233.5C430.139 232.107 429.442 230.397 429.442 228.37C429.442 225.33 430.772 222.48 433.432 219.82C436.219 217.033 439.702 214.627 443.882 212.6C448.062 210.447 452.369 208.8 456.802 207.66C461.362 206.393 465.352 205.76 468.772 205.76C473.966 205.76 478.399 207.407 482.072 210.7C485.746 213.993 487.582 219.377 487.582 226.85V260.48C487.582 264.153 488.216 267.003 489.482 269.03C490.876 271.057 492.776 272.07 495.182 272.07C496.956 272.07 498.792 271.627 500.692 270.74C501.199 270.487 501.579 270.74 501.832 271.5C502.212 272.133 502.086 272.577 501.452 272.83L481.882 282.14ZM445.402 282.33C439.829 282.33 435.649 281.127 432.862 278.72C430.202 276.187 428.872 272.83 428.872 268.65C428.872 264.47 430.012 261.303 432.292 259.15C434.572 256.87 437.549 255.097 441.222 253.83C444.896 252.437 448.696 251.043 452.622 249.65L471.622 242.62L472.382 245.47L461.552 250.41C460.539 250.79 459.082 251.423 457.182 252.31C455.282 253.07 453.572 254.273 452.052 255.92C450.532 257.44 449.772 259.657 449.772 262.57C449.772 265.863 450.849 268.333 453.002 269.98C455.156 271.5 457.309 272.26 459.462 272.26C460.476 272.26 461.426 272.133 462.312 271.88C463.326 271.627 464.466 271.057 465.732 270.17L475.232 263.71L475.422 266.75L462.122 276.25C459.336 278.403 456.676 279.987 454.142 281C451.609 281.887 448.696 282.33 445.402 282.33ZM559.763 281C559.383 281 559.193 280.62 559.193 279.86C559.193 279.1 559.383 278.72 559.763 278.72C563.69 278.72 566.35 277.833 567.743 276.06C569.136 274.16 569.833 270.677 569.833 265.61V238.25C569.833 231.41 568.566 226.343 566.033 223.05C563.626 219.757 559.763 218.11 554.443 218.11C550.643 218.11 546.716 219.06 542.663 220.96C538.736 222.86 535.57 225.457 533.163 228.75L532.213 226.47C536.646 220.137 541.65 215.07 547.223 211.27C552.796 207.343 558.876 205.38 565.463 205.38C572.556 205.38 578.003 207.597 581.803 212.03C585.73 216.463 587.693 222.163 587.693 229.13V265.61C587.693 270.677 588.39 274.16 589.783 276.06C591.303 277.833 594.026 278.72 597.953 278.72C598.333 278.72 598.523 279.1 598.523 279.86C598.523 280.62 598.333 281 597.953 281C595.42 281 592.506 280.937 589.213 280.81C585.92 280.683 582.436 280.62 578.763 280.62C575.216 280.62 571.796 280.683 568.503 280.81C565.21 280.937 562.296 281 559.763 281ZM508.653 281C508.273 281 508.083 280.62 508.083 279.86C508.083 279.1 508.273 278.72 508.653 278.72C512.58 278.72 515.24 277.833 516.633 276.06C518.026 274.16 518.723 270.677 518.723 265.61V229.89C518.723 225.963 518.28 223.113 517.393 221.34C516.506 219.44 514.986 218.49 512.833 218.49C511.693 218.49 510.363 218.743 508.843 219.25C507.323 219.63 505.613 220.263 503.713 221.15C503.206 221.403 502.826 221.15 502.573 220.39C502.32 219.63 502.32 219.187 502.573 219.06L528.983 206.14C529.743 205.887 530.186 205.76 530.313 205.76C531.706 205.76 533.1 207.28 534.493 210.32C535.886 213.36 536.583 217.73 536.583 223.43V265.61C536.583 270.677 537.28 274.16 538.673 276.06C540.193 277.833 542.916 278.72 546.843 278.72C547.223 278.72 547.413 279.1 547.413 279.86C547.413 280.62 547.223 281 546.843 281C544.31 281 541.396 280.937 538.103 280.81C534.81 280.683 531.326 280.62 527.653 280.62C524.106 280.62 520.686 280.683 517.393 280.81C514.1 280.937 511.186 281 508.653 281ZM685.043 207.66C685.296 207.66 685.423 208.04 685.423 208.8C685.423 209.56 685.296 209.94 685.043 209.94C680.736 209.94 677.126 211.777 674.213 215.45C671.3 219.123 668.703 224.063 666.423 230.27L645.333 286.32C640.773 298.48 636.34 308.043 632.033 315.01C627.853 322.103 623.61 327.107 619.303 330.02C614.996 332.933 610.436 334.39 605.623 334.39C601.95 334.39 599.1 333.567 597.073 331.92C594.92 330.4 593.843 328.12 593.843 325.08C593.843 322.04 594.793 319.76 596.693 318.24C598.466 316.847 600.556 316.15 602.963 316.15C605.116 316.15 606.826 316.53 608.093 317.29C609.36 318.177 610.626 319 611.893 319.76C613.16 320.647 614.806 321.09 616.833 321.09C619.873 321.09 622.66 319.76 625.193 317.1C627.726 314.567 630.45 310.133 633.363 303.8C636.276 297.593 639.696 289.043 643.623 278.15L643.053 288.6L610.753 223.43C607.966 217.857 605.75 214.247 604.103 212.6C602.583 210.827 600.683 209.94 598.403 209.94C598.023 209.94 597.833 209.56 597.833 208.8C597.833 208.04 598.023 207.66 598.403 207.66C600.936 207.66 603.596 207.723 606.383 207.85C609.296 207.977 612.02 208.04 614.553 208.04C619.113 208.04 623.103 207.977 626.523 207.85C629.943 207.723 633.046 207.66 635.833 207.66C636.213 207.66 636.403 208.04 636.403 208.8C636.403 209.56 636.213 209.94 635.833 209.94C631.4 209.94 628.55 210.447 627.283 211.46C626.016 212.473 626.08 214.437 627.473 217.35L651.603 266.75L644.763 277.96L661.293 230.08C663.446 223.873 663.573 218.997 661.673 215.45C659.9 211.777 656.416 209.94 651.223 209.94C650.97 209.94 650.843 209.56 650.843 208.8C650.843 208.04 650.97 207.66 651.223 207.66C654.263 207.66 657.113 207.723 659.773 207.85C662.56 207.977 666.106 208.04 670.413 208.04C673.453 208.04 675.923 207.977 677.823 207.85C679.85 207.723 682.256 207.66 685.043 207.66Z" fill="black"/>
</svg>
